<svg width="67" height="74" viewBox="0 0 67 74" fill="none" xmlns="http://www.w3.org/2000/svg">
<path id="Joint-Logo" fill-rule="evenodd" clip-rule="evenodd" d="M22.34 10.5129H44.6799V0L42.2214 6.30774H38.8009L36.4494 0L33.792 6.30774L30.5705 0L28.5396 6.30774H25.1191L22.34 0V5.25645V10.5129ZM17.6092 14.0039C16.3753 16.2901 12.9041 19.3323 12.9041 19.3323C12.9605 19.017 13.0133 18.7186 13.0634 18.4352C13.5834 15.4965 13.8162 14.1803 14.7759 12.4748C16.0098 10.1886 17.6755 8.36346 19.481 7.14645C19.4546 9.32363 18.8431 11.7178 17.6092 14.0039ZM54.1645 19.6193C54.1645 19.6193 53.5263 15.0479 52.2923 12.7619C51.0583 10.4759 49.3924 8.65076 47.5869 7.43388C47.6134 9.61104 48.2251 12.0052 49.4591 14.2912C50.3582 16.0295 51.3308 16.9465 53.5022 18.994L53.5031 18.9948C53.7121 19.1919 53.9323 19.3995 54.1645 19.6193ZM59.1583 25.5271C59.5503 23.3853 59.4097 20.9183 58.6376 18.4378C57.8655 15.9574 56.581 13.8464 55.0427 12.3055C54.6508 14.4473 54.7914 16.9143 55.5635 19.3947C56.1121 21.2733 56.8904 22.3599 58.6283 24.7861L58.6285 24.7864C58.796 25.0203 58.9723 25.2665 59.1583 25.5271ZM64.0223 25.6278C63.7427 28.2106 62.8892 30.5295 61.6767 32.338C61.6099 32.0248 61.5462 31.7285 61.4856 31.4472C60.8578 28.5297 60.5766 27.2229 60.8215 25.2813C61.1011 22.6985 61.9546 20.3796 63.1671 18.5711C63.9644 20.5972 64.3019 23.0451 64.0223 25.6278ZM61.5586 40.9763C63.2413 39.5945 64.7276 37.6204 65.7405 35.2282C66.7533 32.8359 67.1365 30.3948 66.9576 28.2248C65.2748 29.6066 63.7886 31.5806 62.7757 33.9729C61.981 35.7613 61.8732 37.0936 61.6326 40.0682C61.6094 40.355 61.585 40.6571 61.5586 40.9763ZM9.25089 39.8504C8.63376 40.8139 8.03916 41.7424 7.7983 42.7808C7.21517 40.673 7.14488 38.2 7.71491 35.6655C8.28495 33.1309 9.40729 30.9261 10.8367 29.271C10.8694 29.3892 10.9005 29.5085 10.93 29.629C11.3635 29.0827 11.8263 28.5839 12.3112 28.1379C12.6492 30.2986 12.4361 32.7634 11.5797 35.216C11.348 35.7595 11.0896 36.2853 10.8155 36.7893C10.4785 37.9336 9.85393 38.9087 9.25089 39.8504ZM53.2317 57.3617C55.3768 56.9358 57.6178 55.8876 59.6261 54.2397C61.6344 52.5919 63.1 50.5987 63.9366 48.578C61.7915 49.0039 59.5505 50.0521 57.5422 51.7C55.5339 53.3479 54.0683 55.3411 53.2317 57.3617ZM51.2889 56.5852C49.9287 58.7985 48.0486 60.4569 45.9844 61.4519C45.9396 59.1608 46.5699 56.7343 47.9301 54.521C49.2903 52.3077 51.1704 50.6493 53.2346 49.6543C53.2794 51.9454 52.6491 54.3718 51.2889 56.5852ZM32.6556 65.4412C31.9354 63.2654 30.5335 61.1863 28.514 59.551C26.4946 57.9157 24.1695 56.9767 21.8915 56.7246C22.6117 58.9005 24.0136 60.9795 26.033 62.6148C28.0525 64.2501 30.3776 65.1891 32.6556 65.4412ZM18.404 62.4108C17.1107 60.5187 15.1889 58.9079 12.7962 57.8943C10.4036 56.8806 7.90952 56.6206 5.65055 57.0078C6.94389 58.8999 8.86572 60.5107 11.2584 61.5243C13.651 62.5379 16.145 62.798 18.404 62.4108ZM21.3848 63.8785C23.9659 64.179 26.2685 65.1364 28.051 66.5069C26.0013 67.4313 23.5403 67.8339 20.9593 67.5333C19.4248 67.3873 16.9137 66.3988 14.2932 64.9049C16.3428 63.9805 18.8038 63.5779 21.3848 63.8785ZM40.5754 66.5064C42.625 67.4308 45.086 67.8335 47.6671 67.5331C50.4764 66.9551 52.8416 65.9221 54.3333 64.9049C52.2837 63.9805 49.8227 63.5778 47.2416 63.8782C44.6605 64.1787 42.3579 65.1359 40.5754 66.5064ZM28.049 67.3462C29.8386 66.8605 32.1828 66.9433 33.7522 67.4015C33.9177 67.4394 34.1073 67.5343 34.3802 67.7148C34.7681 67.4568 35.0106 67.3283 35.1682 67.3062C36.7451 66.8721 39.0903 66.8253 40.8716 67.3385C42.653 67.8516 44.146 68.8082 45.2139 70.0041C43.6371 70.4382 41.8424 70.4476 40.0611 69.9344C38.5565 69.4433 36.1375 68.1884 35.7153 67.9029C35.6568 67.8634 35.6069 67.8261 35.5638 67.7909C35.3555 67.6978 35.0718 67.7697 34.7302 67.9588C35.0453 68.1869 35.4487 68.4955 35.986 68.9063C36.9152 69.617 38.2445 70.6337 40.2084 72.069L40.2087 72.0713L40.2097 72.0758C40.2103 72.0778 40.211 72.0801 40.2119 72.0828C40.2126 72.0849 40.2134 72.0872 40.2143 72.0898C40.2423 72.1714 40.3429 72.4644 39.8655 73.0063C38.6984 72.2589 37.5163 71.0979 36.4649 70.0651L36.4648 70.065C35.6735 69.2877 34.9561 68.583 34.3747 68.1821C33.7355 68.624 32.9473 69.3567 32.0956 70.1486L32.0953 70.1488L32.0952 70.1489C30.9593 71.205 29.7102 72.3662 28.5503 73.0835C28.082 72.5343 28.1875 72.2429 28.2169 72.1617C28.2187 72.1567 28.2202 72.1525 28.2212 72.1491L28.2224 72.1452L28.2228 72.1431L28.223 72.1411C30.0905 70.8221 31.4663 69.8165 32.4835 69.0729L32.4836 69.0729C33.1255 68.6036 33.6247 68.2388 34.0144 67.9655C33.7347 67.8269 33.4985 67.7909 33.3153 67.8939C33.2773 67.9286 33.2374 67.961 33.1953 67.9898C32.9547 68.1544 30.3732 69.4592 28.8162 69.9543C27.0265 70.44 25.2322 70.4031 23.6628 69.9448C24.7505 68.7654 26.2593 67.832 28.049 67.3462ZM41.6538 62.6138C39.6349 64.2487 37.3102 65.1874 35.0326 65.4391C35.7524 63.2636 37.1539 61.1849 39.1728 59.55C41.1917 57.9151 43.5164 56.9765 45.794 56.7247C45.0742 58.9002 43.6727 60.9789 41.6538 62.6138ZM49.0162 62.4092C51.2748 62.7966 53.7683 62.5369 56.1603 61.5236C58.5524 60.5102 60.4737 58.8997 61.7667 57.0078C59.5082 56.6204 57.0146 56.8802 54.6226 57.8935C52.2305 58.9068 50.3092 60.5173 49.0162 62.4092ZM54.3992 53.2996C55.7872 51.6161 56.8623 49.3896 57.3854 46.845C57.9501 44.1914 57.5891 41.0245 56.7892 39.4234C56.3859 40.8274 55.8533 42.0855 55.329 43.3241C54.9277 44.272 54.5312 45.2086 54.2012 46.1904C53.6781 48.7351 53.7878 51.2051 54.3992 53.2996ZM19.75 54.5212C21.1101 56.7346 21.7403 59.1611 21.6954 61.4522C19.6312 60.4571 17.7512 58.7986 16.3911 56.5852C15.0311 54.3718 14.4009 51.9453 14.4458 49.6542C16.5099 50.6493 18.3899 52.3078 19.75 54.5212ZM14.0001 57.3619C13.1636 55.3413 11.698 53.348 9.68976 51.7001C7.68148 50.0522 5.44051 49.0039 3.29541 48.5779C4.13195 50.5986 5.59748 52.5918 7.60576 54.2398C9.61404 55.8877 11.855 56.9359 14.0001 57.3619ZM6.35761 43.6453C7.91779 45.7225 8.8786 47.9991 9.22857 50.1481C7.26217 49.2132 5.34349 47.6561 3.78331 45.5789C2.22313 43.5017 1.26232 41.2251 0.912343 39.0761C2.87874 40.011 4.79742 41.5681 6.35761 43.6453ZM4.2245 33.9721C5.23748 36.3643 5.44186 40.9754 5.44186 40.9754C5.23102 40.7343 5.03112 40.5065 4.84132 40.2903C2.8727 38.0473 1.99097 37.0427 1.25977 35.2275C0.24679 32.8353 -0.136417 30.3941 0.0424019 28.2241C1.72517 29.6059 3.21152 31.5799 4.2245 33.9721ZM5.34649 32.3378C5.34649 32.3378 6.48124 27.8638 6.20157 25.2811C5.92191 22.6983 5.06832 20.3794 3.85579 18.5709C3.05847 20.597 2.72104 23.0449 3.00071 25.6277C3.17705 27.5767 3.73143 28.793 4.96916 31.5086C5.0885 31.7704 5.21418 32.0461 5.34649 32.3378ZM11.3293 19.3953C10.5573 21.8758 7.73467 25.5278 7.73467 25.5278C7.72948 25.2082 7.72401 24.9057 7.71883 24.6185L7.71881 24.6177L7.71881 24.6173L7.7188 24.6171L7.7188 24.6169V24.6169C7.66491 21.633 7.64077 20.2966 8.2552 18.4385C9.02724 15.958 10.3116 13.847 11.8499 12.3061C12.2419 14.4478 12.1014 16.9148 11.3293 19.3953ZM57.4191 50.1482C59.3855 49.2132 61.3042 47.6561 62.8644 45.5789C64.4246 43.5017 65.3853 41.2251 65.7353 39.0761C63.7689 40.011 61.8502 41.5682 60.2901 43.6454C59.2288 45.506 58.16 47.8399 57.4191 50.1482ZM7.45016 30.0328C9.1352 29.1612 12.4548 26.7283 13.1747 25.806C14.8519 23.8221 15.9329 21.5968 16.3903 19.4582C14.3576 20.265 12.3431 21.7011 10.6658 23.685C8.98859 25.6688 7.90758 27.8942 7.45016 30.0328ZM56.5403 23.6862C57.3299 24.5494 59.1766 28.2276 59.7557 30.0341C56.3093 27.7935 54.6887 26.7312 54.0314 25.8071C52.3542 23.8232 51.2733 21.5978 50.816 19.4592C52.8487 20.266 54.8631 21.7022 56.5403 23.6862ZM59.6939 41.2111C60.0319 39.0504 59.8185 36.5856 58.962 34.133C58.1055 31.6804 56.7381 29.6186 55.1286 28.138C54.7906 30.2987 55.0039 32.7635 55.8604 35.2161C56.2506 37.1473 57.1553 38.5516 59.6939 41.2111ZM13.3979 46.2052C13.9211 48.7498 13.8125 51.2197 13.2028 53.3139C11.8162 51.6302 10.7418 49.4036 10.2185 46.859C9.69528 44.3144 9.80391 41.8446 10.4136 39.7504C11.2218 41.9798 12.3167 44.187 13.3979 46.2052ZM43.5405 11.827L23.986 11.827L21.1103 35.849L16.8543 39.5494V44.0208L14.4553 47.8138H52.8412L50.442 44.0516V38.9367L45.841 35.849L43.5405 11.827ZM36.0473 20.5396C34.8478 18.5192 32.4486 18.5191 31.2491 20.5396V28.6208H36.0473V20.5396Z" fill="#C8AA80"/>
</svg>
