<svg width="501" height="313" viewBox="0 0 501 313" fill="none" xmlns="http://www.w3.org/2000/svg">
<g id="columns">
<path fillRule="evenodd" clipRule="evenodd" d="M489.295 20.0003L480.38 1.34761L483.074 0.0612083L490.867 16.3673L497.951 0L500.691 1.18484L492.575 19.939L501 37.5678L492.821 52.2685L500.976 67.3143L492.743 86.6339L500.988 104.52L492.919 119.524L500.967 134.084L492.516 155.58L500.955 175.283L492.867 192.663L500.961 210.495L492.833 228.257L500.998 243.944L492.635 260.532L500.98 276.675L492.655 294.966L500.663 311.383L497.979 312.691L491.052 298.488L484.605 312.655L481.888 311.419L489.355 295.01L480.776 277.42L489.283 260.548L481.587 245.66L489.512 228.341L480.779 211.561L489.582 192.647L481.626 175.119L489.289 155.628L480.787 135.78L489.519 119.544L481.588 105.195L489.478 86.6813L480.77 67.7906L489.416 52.2498L481.588 37.8084L489.295 20.0003ZM484.904 37.6621L491.002 23.572L497.642 37.4639L491.136 49.1584L484.904 37.6621ZM484.115 67.9173L491.101 55.3599L497.665 67.4697L491.057 82.976L484.115 67.9173ZM484.905 105.026L491.164 90.3392L497.654 104.418L491.201 116.416L484.905 105.026ZM484.098 135.927L491.237 122.652L497.675 134.299L490.843 151.675L484.098 135.927ZM484.867 175.036L490.962 159.533L497.686 175.233L491.241 189.081L484.867 175.036ZM484.106 211.487L491.207 196.229L497.681 210.49L491.087 224.9L484.106 211.487ZM484.906 245.58L491.259 231.697L497.644 243.965L490.942 257.257L484.906 245.58ZM484.109 277.442L490.975 263.823L497.662 276.758L490.959 291.487L484.109 277.442Z" fill="#715B3E"/>
<path fillRule="evenodd" clipRule="evenodd" d="M16.8761 20.3097L7.96122 1.65701L10.6551 0.370605L18.4484 16.6767L25.5317 0.309397L28.2718 1.49423L20.1554 20.2484L28.5809 37.8772L20.4023 52.5779L28.5574 67.6237L20.324 86.9433L28.569 104.83L20.4998 119.834L28.5478 134.394L20.0967 155.889L28.5364 175.593L20.448 192.972L28.5421 210.805L20.4144 228.566L28.5788 244.253L20.2156 260.841L28.5606 276.984L20.2363 295.275L28.2435 311.692L25.56 313L18.6331 298.798L12.1859 312.964L9.46843 311.728L16.9364 295.319L8.3574 277.73L16.8638 260.858L9.1675 245.969L17.0929 228.65L8.35996 211.87L17.1626 192.956L9.20692 175.429L16.8699 155.938L8.36819 136.089L17.0998 119.853L9.16855 105.505L17.0587 86.9907L8.35066 68.1L16.9966 52.5592L9.16909 38.1178L16.8761 20.3097ZM12.4853 37.9715L18.5831 23.8814L25.2226 37.7733L18.7165 49.4678L12.4853 37.9715ZM11.6962 68.2267L18.6824 55.6693L25.2461 67.7791L18.6378 83.2854L11.6962 68.2267ZM12.4858 105.335L18.7449 90.6486L25.2346 104.727L18.7818 116.726L12.4858 105.335ZM11.6787 136.236L18.8178 122.961L25.2557 134.608L18.4242 151.984L11.6787 136.236ZM12.4474 175.345L18.5425 159.842L25.2672 175.542L18.8223 189.39L12.4474 175.345ZM11.6869 211.797L18.7883 196.538L25.2614 210.8L18.6674 225.209L11.6869 211.797ZM12.4868 245.89L18.8398 232.007L25.2247 244.275L18.5231 257.567L12.4868 245.89ZM11.6895 277.752L18.5563 264.132L25.243 277.067L18.5396 291.796L11.6895 277.752Z" fill="#715B3E"/>
<path fillRule="evenodd" clipRule="evenodd" d="M481.334 20.0003L472.419 1.34761L475.113 0.0612083L482.906 16.3673L489.99 0L492.73 1.18484L484.613 19.939L493.039 37.5678L484.86 52.2685L493.015 67.3143L484.782 86.6339L493.027 104.52L484.958 119.524L493.006 134.084L484.555 155.58L492.994 175.283L484.906 192.663L493 210.495L484.872 228.257L493.037 243.944L484.673 260.532L493.018 276.675L484.694 294.966L492.701 311.383L490.018 312.691L483.091 298.488L476.644 312.655L473.926 311.419L481.394 295.01L472.815 277.42L481.322 260.548L473.625 245.66L481.551 228.341L472.818 211.561L481.62 192.647L473.665 175.119L481.328 155.628L472.826 135.78L481.558 119.544L473.626 105.195L481.517 86.6813L472.809 67.7906L481.455 52.2498L473.627 37.8084L481.334 20.0003ZM476.943 37.6621L483.041 23.572L489.68 37.4639L483.174 49.1584L476.943 37.6621ZM476.154 67.9173L483.14 55.3599L489.704 67.4697L483.096 82.976L476.154 67.9173ZM476.944 105.026L483.203 90.3392L489.692 104.418L483.24 116.416L476.944 105.026ZM476.137 135.927L483.276 122.652L489.714 134.299L482.882 151.675L476.137 135.927ZM476.905 175.036L483 159.533L489.725 175.233L483.28 189.081L476.905 175.036ZM476.145 211.487L483.246 196.229L489.719 210.49L483.125 224.9L476.145 211.487ZM476.945 245.58L483.298 231.697L489.683 243.965L482.981 257.257L476.945 245.58ZM476.147 277.442L483.014 263.823L489.701 276.758L482.997 291.487L476.147 277.442Z" fill="#715B3E"/>
<path fillRule="evenodd" clipRule="evenodd" d="M8.91484 20.3097L0 1.65701L2.69383 0.370605L10.4871 16.6767L17.5705 0.309397L20.3106 1.49423L12.1942 20.2484L20.6197 37.8772L12.441 52.5779L20.5962 67.6237L12.3627 86.9433L20.6077 104.83L12.5386 119.834L20.5866 134.394L12.1355 155.889L20.5752 175.593L12.4868 192.972L20.5809 210.805L12.4532 228.566L20.6176 244.253L12.2543 260.841L20.5993 276.984L12.2751 295.275L20.2823 311.692L17.5988 313L10.6719 298.798L4.22469 312.964L1.50721 311.728L8.97517 295.319L0.396175 277.73L8.90262 260.858L1.20627 245.969L9.13168 228.65L0.398733 211.87L9.20135 192.956L1.24569 175.429L8.90869 155.938L0.406965 136.089L9.13856 119.853L1.20733 105.505L9.09746 86.9907L0.389441 68.1L9.03542 52.5592L1.20786 38.1178L8.91484 20.3097ZM4.52403 37.9715L10.6219 23.8814L17.2614 37.7733L10.7553 49.4678L4.52403 37.9715ZM3.73499 68.2267L10.7212 55.6693L17.2849 67.7791L10.6766 83.2854L3.73499 68.2267ZM4.52456 105.335L10.7836 90.6486L17.2734 104.727L10.8206 116.726L4.52456 105.335ZM3.71747 136.236L10.8566 122.961L17.2945 134.608L10.463 151.984L3.71747 136.236ZM4.4862 175.345L10.5812 159.842L17.3059 175.542L10.8611 189.39L4.4862 175.345ZM3.72569 211.797L10.8271 196.538L17.3002 210.8L10.7062 225.209L3.72569 211.797ZM4.52562 245.89L10.8786 232.007L17.2635 244.275L10.5619 257.567L4.52562 245.89ZM3.72826 277.752L10.5951 264.132L17.2817 277.067L10.5784 291.796L3.72826 277.752Z" fill="#715B3E"/>
</g>
</svg>
