<svg width="112" height="133" viewBox="0 0 112 133" fill="none" xmlns="http://www.w3.org/2000/svg">
<path d="M59.976 1.62813C59.4558 1.11204 58.8378 0.70257 58.1575 0.423189C57.4772 0.143807 56.7478 0 56.0112 0C55.2746 0 54.5452 0.143807 53.8649 0.423189C53.1846 0.70257 52.5666 1.11204 52.0464 1.62813C38.1248 15.383 22.736 22.1663 5.6 22.1663C4.11479 22.1663 2.69041 22.7502 1.6402 23.7895C0.589999 24.8288 0 26.2384 0 27.7081V60.9704C0 96.649 18.3792 120.9 54.2304 132.715C55.379 133.095 56.621 133.095 57.7696 132.715C93.6096 120.9 112 96.649 112 60.9704V27.7081C112 26.2384 111.41 24.8288 110.36 23.7895C109.31 22.7502 107.885 22.1663 106.4 22.1663C89.2528 22.1663 73.864 15.4052 59.976 1.62813ZM11.2 33.0283C27.776 31.787 42.7168 24.9816 56 13.1663C69.272 24.9816 84.224 31.787 100.8 33.0283V60.9593C100.8 76.8534 96.7344 89.378 89.3648 99.1317C82.2192 108.575 71.344 116.995 56 122.36C40.656 117.007 29.7808 108.575 22.6352 99.1317C15.2656 89.3891 11.2 76.8645 11.2 60.9704V33.0283ZM61.6 38.7808C61.6 37.311 61.01 35.9014 59.9598 34.8621C58.9096 33.8228 57.4852 33.2389 56 33.2389C54.5148 33.2389 53.0904 33.8228 52.0402 34.8621C50.99 35.9014 50.4 37.311 50.4 38.7808V72.032C50.4 73.5018 50.99 74.9114 52.0402 75.9507C53.0904 76.99 54.5148 77.5739 56 77.5739C57.4852 77.5739 58.9096 76.99 59.9598 75.9507C61.01 74.9114 61.6 73.5018 61.6 72.032V38.7808ZM64.4 96.9704C64.4 99.1751 63.515 101.289 61.9397 102.848C60.3644 104.407 58.2278 105.283 56 105.283C53.7722 105.283 51.6356 104.407 50.0603 102.848C48.485 101.289 47.6 99.1751 47.6 96.9704C47.6 94.7657 48.485 92.6513 50.0603 91.0924C51.6356 89.5334 53.7722 88.6576 56 88.6576C58.2278 88.6576 60.3644 89.5334 61.9397 91.0924C63.515 92.6513 64.4 94.7657 64.4 96.9704Z" fill="#C8AA80"/>
</svg>
