<svg width="34" height="70" viewBox="0 0 34 70" fill="none" xmlns="http://www.w3.org/2000/svg">
<path id="food" d="M1.5 17.5002V17.5V2.5C1.5 2.11688 1.61746 1.80785 1.74918 1.63223C1.80467 1.55823 1.85095 1.52276 1.875 1.50785C1.89905 1.52276 1.94533 1.55823 2.00082 1.63223C2.13254 1.80785 2.25 2.11688 2.25 2.5V17.4994C2.25 17.4996 2.25 17.4998 2.25 17.5C2.24939 19.276 2.66042 21.0339 3.45602 22.5349C4.25089 24.0346 5.41912 25.2524 6.8604 25.9318L9 26.9404V24.575V2.5C9 2.11688 9.11746 1.80785 9.24918 1.63223C9.30467 1.55823 9.35095 1.52276 9.375 1.50785C9.39905 1.52276 9.44533 1.55823 9.50082 1.63223C9.63254 1.80785 9.75 2.11688 9.75 2.5V24.575V26.9404L11.8896 25.9318C13.3309 25.2524 14.4991 24.0346 15.294 22.5349C16.0896 21.0339 16.5006 19.276 16.5 17.5C16.5 17.4998 16.5 17.4996 16.5 17.4994V2.5C16.5 2.11688 16.6175 1.80785 16.7492 1.63223C16.8047 1.55824 16.851 1.52276 16.875 1.50785C16.8991 1.52276 16.9453 1.55824 17.0008 1.63223C17.1325 1.80785 17.25 2.11688 17.25 2.5V17.5V17.5002C17.2504 20.1342 16.5662 22.651 15.3582 24.624C14.1503 26.597 12.5355 27.8456 10.8561 28.3026L9.75 28.6037V29.75V67.5C9.75 67.8831 9.63254 68.1921 9.50082 68.3678C9.44533 68.4418 9.39905 68.4772 9.375 68.4921C9.35094 68.4772 9.30467 68.4418 9.24918 68.3678C9.11746 68.1921 9 67.8831 9 67.5V29.75V28.6037L7.89392 28.3026C6.21454 27.8456 4.59975 26.597 3.39183 24.624C2.18384 22.651 1.4996 20.1342 1.5 17.5002ZM31.5 35V33.5H30H29.997H29.994H29.9908H29.9876H29.9843H29.9809H29.9774H29.9738H29.9701H29.9663H29.9625H29.9585H29.9545H29.9504H29.9462H29.9419H29.9375H29.933H29.9285H29.9238H29.9191H29.9143H29.9094H29.9044H29.8994H29.8942H29.889H29.8837H29.8783H29.8728H29.8673H29.8617H29.8559H29.8501H29.8443H29.8383H29.8323H29.8262H29.82H29.8137H29.8073H29.8009H29.7944H29.7878H29.7812H29.7744H29.7676H29.7607H29.7537H29.7467H29.7396H29.7324H29.7251H29.7178H29.7104H29.7029H29.6953H29.6877H29.68H29.6722H29.6644H29.6565H29.6485H29.6404H29.6323H29.6241H29.6158H29.6075H29.5991H29.5906H29.5821H29.5735H29.5648H29.556H29.5472H29.5383H29.5294H29.5204H29.5113H29.5022H29.493H29.4837H29.4744H29.465H29.4555H29.446H29.4364H29.4267H29.417H29.4072H29.3974H29.3875H29.3776H29.3675H29.3575H29.3473H29.3371H29.3269H29.3166H29.3062H29.2957H29.2853H29.2747H29.2641H29.2534H29.2427H29.232H29.2211H29.2102H29.1993H29.1883H29.1773H29.1661H29.155H29.1438H29.1325H29.1212H29.1098H29.0984H29.0869H29.0754H29.0638H29.0522H29.0405H29.0288H29.017H29.0052H28.9933H28.9814H28.9694H28.9574H28.9454H28.9332H28.9211H28.9089H28.8966H28.8843H28.872H28.8596H28.8471H28.8347H28.8221H28.8096H28.7969H28.7843H28.7716H28.7588H28.7461H28.7332H28.7204H28.7075H28.6945H28.6815H28.6685H28.6554H28.6423H28.6291H28.616H28.6027H28.5895H28.5762H28.5628H28.5494H28.536H28.5226H28.5091H28.4955H28.482H28.4684H28.4548H28.4411H28.4274H28.4137H28.3999H28.3861H28.3723H28.3584H28.3445H28.3306H28.3166H28.3026H28.2886H28.2745H28.2604H28.2463H28.2322H28.218H28.2038H28.1896H28.1753H28.161H28.1467H28.1324H28.118H28.1036H28.0892H28.0747H28.0602H28.0457H28.0312H28.0167H28.0021H27.9875H27.9729H27.9582H27.9436H27.9289H27.9142H27.8994H27.8847H27.8699H27.8551H27.8403H27.8255H27.8106H27.7957H27.7808H27.7659H27.751H27.736H27.7211H27.7061H27.6911H27.6761H27.661H27.646H27.6309H27.6158H27.6007H27.5856H27.5705H27.5553H27.5402H27.525H27.5098H27.4946H27.4794H27.4642H27.449H27.4337H27.4185H27.4032H27.3879H27.3726H27.3573H27.342H27.3267H27.3114H27.2961H27.2807H27.2654H27.25H27.2346H27.2193H27.2039H27.1885H27.1731H27.1577H27.1423H27.1269H27.1115H27.0961H27.0807H27.0653H27.0499H27.0344H27.019H27.0036H26.9882H26.9727H26.9573H26.9419H26.9264H26.911H26.8956H26.8801H26.8647H26.8493H26.8338H26.8184H26.803H26.7876H26.7721H26.7567H26.7413H26.7259H26.7105H26.6951H26.6797H26.6643H26.6489H26.6335H26.6182H26.6028H26.5875H26.5721H26.5568H26.5414H26.5261H26.5108H26.4955H26.4802H26.4649H26.4496H26.4343H26.4191H26.4038H26.3886H26.3734H26.3582H26.343H26.3278H26.3126H26.2974H26.2823H26.2672H26.252H26.2369H26.2218H26.2068H26.1917H26.1767H26.1616H26.1466H26.1316H26.1167H26.1017H26.0868H26.0719H26.057H26.0421H26.0272H26.0124H25.9975H25.9827H25.968H25.9532H25.9385H25.9237H25.9091H25.8944H25.8797H25.8651H25.8505H25.8359H25.8214H25.8068H25.7923H25.7778H25.7634H25.749H25.7346H25.7202H25.7058H25.6915H25.6772H25.6629H25.6487H25.6345H25.6203H25.6062H25.592H25.5779H25.5639H25.5498H25.5358H25.5219H25.5079H25.494H25.4801H25.4663H25.4525H25.4387H25.425H25.4113H25.3976H25.3839H25.3703H25.3568H25.3432H25.3297H25.3163H25.3028H25.2894H25.2761H25.2628H25.2495H25.2363H25.2231H25.2099H25.1968H25.1837H25.1706H25.1576H25.1447H25.1318H25.1189H25.106H25.0932H25.0805H25.0678H25.0551H25.0425H25.0299H25.0174H25.0049H24.9924H24.98H24.9677H24.9553H24.9431H24.9309H24.9187H24.9065H24.8945H24.8824H24.8705H24.8585H24.8466H24.8348H24.823H24.8113H24.7996H24.7879H24.7763H24.7648H24.7533H24.7419H24.737C24.6144 33.3393 24.4859 33.1654 24.3558 32.9754C24.2091 32.761 24.0983 32.5786 24.0295 32.4395C24.017 32.4141 24.0073 32.3932 24 32.3765V12.5C24 9.54213 25.0967 6.75298 26.5909 4.75541C28.1137 2.72996 30.0404 1.50629 31.8609 1.50002C31.8626 1.50084 31.8648 1.50193 31.8674 1.50336C31.8881 1.51483 31.9387 1.54939 32.0008 1.63223C32.1325 1.80785 32.25 2.11688 32.25 2.5V67.5C32.25 67.8831 32.1325 68.1921 32.0008 68.3678C31.9453 68.4418 31.8991 68.4772 31.875 68.4921C31.851 68.4772 31.8047 68.4418 31.7492 68.3678C31.6175 68.1922 31.5 67.8831 31.5 67.5V35ZM23.9797 32.3246C23.9797 32.3246 23.9802 32.326 23.9809 32.3286C23.98 32.3259 23.9796 32.3246 23.9797 32.3246Z" fill="#715B3E" stroke="#715B3E" strokeWidth="3"/>
</svg>
