<svg width="34" height="34" viewBox="0 0 34 34" fill="none" xmlns="http://www.w3.org/2000/svg">
<g id="instagram">
<path id="Vector" d="M11.05 2.83301H22.95C27.4833 2.83301 31.1666 6.51634 31.1666 11.0497V22.9497C31.1666 25.1289 30.301 27.2188 28.76 28.7597C27.2191 30.3007 25.1292 31.1663 22.95 31.1663H11.05C6.51665 31.1663 2.83331 27.483 2.83331 22.9497V11.0497C2.83331 8.87048 3.699 6.78054 5.23992 5.23961C6.78084 3.69869 8.87078 2.83301 11.05 2.83301M10.7666 5.66634C9.41404 5.66634 8.11684 6.20366 7.1604 7.1601C6.20397 8.11653 5.66665 9.41374 5.66665 10.7663V23.233C5.66665 26.0522 7.94748 28.333 10.7666 28.333H23.2333C24.5859 28.333 25.8831 27.7957 26.8396 26.8393C27.796 25.8828 28.3333 24.5856 28.3333 23.233V10.7663C28.3333 7.94717 26.0525 5.66634 23.2333 5.66634H10.7666ZM24.4375 7.79134C24.9071 7.79134 25.3576 7.97791 25.6896 8.31001C26.0217 8.6421 26.2083 9.09252 26.2083 9.56217C26.2083 10.0318 26.0217 10.4822 25.6896 10.8143C25.3576 11.1464 24.9071 11.333 24.4375 11.333C23.9678 11.333 23.5174 11.1464 23.1853 10.8143C22.8532 10.4822 22.6666 10.0318 22.6666 9.56217C22.6666 9.09252 22.8532 8.6421 23.1853 8.31001C23.5174 7.97791 23.9678 7.79134 24.4375 7.79134ZM17 9.91634C18.8786 9.91634 20.6803 10.6626 22.0087 11.991C23.337 13.3194 24.0833 15.1211 24.0833 16.9997C24.0833 18.8783 23.337 20.68 22.0087 22.0083C20.6803 23.3367 18.8786 24.083 17 24.083C15.1214 24.083 13.3197 23.3367 11.9913 22.0083C10.6629 20.68 9.91665 18.8783 9.91665 16.9997C9.91665 15.1211 10.6629 13.3194 11.9913 11.991C13.3197 10.6626 15.1214 9.91634 17 9.91634M17 12.7497C15.8728 12.7497 14.7918 13.1974 13.9948 13.9945C13.1977 14.7915 12.75 15.8725 12.75 16.9997C12.75 18.1268 13.1977 19.2079 13.9948 20.0049C14.7918 20.8019 15.8728 21.2497 17 21.2497C18.1271 21.2497 19.2082 20.8019 20.0052 20.0049C20.8022 19.2079 21.25 18.1268 21.25 16.9997C21.25 15.8725 20.8022 14.7915 20.0052 13.9945C19.2082 13.1974 18.1271 12.7497 17 12.7497Z" fill="white"/>
</g>
</svg>
