<svg width="57" height="106" viewBox="0 0 57 106" fill="none" xmlns="http://www.w3.org/2000/svg">
<path id="left-leaves" fill-rule="evenodd" clip-rule="evenodd" d="M30.7367 11.969C28.583 15.9592 22.5241 21.269 22.5241 21.269C22.6225 20.7187 22.7147 20.1979 22.8022 19.7034C23.7097 14.5741 24.1162 12.2768 25.7913 9.30001C27.945 5.3098 30.8525 2.12416 34.0039 0C33.9578 3.80003 32.8904 7.97877 30.7367 11.969ZM13.5009 32.0827C13.5009 32.0827 18.4277 25.7085 19.7753 21.3791C21.1229 17.0497 21.3681 12.7438 20.6839 9.00559C17.9989 11.6952 15.757 15.3797 14.4095 19.7091C13.337 22.9521 13.3791 25.2848 13.4732 30.4928C13.4822 30.9949 13.4918 31.5237 13.5009 32.0827ZM10.8248 31.652C11.313 36.16 9.33226 43.9688 9.33226 43.9688C9.10281 43.463 8.88477 42.9846 8.67768 42.5303L8.67691 42.5286L8.67523 42.5249L8.6741 42.5224L8.67365 42.5214C6.51319 37.7817 5.54554 35.6588 5.23773 32.257C4.74958 27.7491 5.33855 23.4766 6.73027 19.9402C8.84673 23.0967 10.3367 27.1441 10.8248 31.652ZM9.49871 59.0448C9.49871 59.0448 9.14195 50.9966 7.37382 46.8212C5.60568 42.6459 3.01126 39.2005 0.074012 36.7888C-0.238114 40.5763 0.430769 44.837 2.19891 49.0124C3.47521 52.1807 5.01426 53.9342 8.45047 57.849L8.45211 57.8509L8.45356 57.8525C8.78393 58.2289 9.13183 58.6253 9.49871 59.0448ZM13.6119 62.1959C14.0323 60.3833 15.0701 58.7629 16.1473 57.081C17.3214 55.248 18.5421 53.342 19.061 51.035C20.056 46.6112 19.9333 42.2948 18.9154 38.6159C16.4203 41.5048 14.4613 45.353 13.4663 49.7768C12.4713 54.2005 12.594 58.5169 13.6119 62.1959ZM57 101.747C55.743 97.9494 53.2959 94.3207 49.771 91.4664C46.2462 88.6122 42.1877 86.9732 38.2115 86.5333C39.4685 90.3309 41.9156 93.9597 45.4405 96.8139C48.9653 99.6681 53.0238 101.307 57 101.747ZM32.1241 96.4577C29.8666 93.1552 26.512 90.3438 22.3357 88.5746C18.1594 86.8054 13.806 86.3515 9.86304 87.0273C12.1205 90.3298 15.4751 93.1412 19.6514 94.9104C23.8277 96.6796 28.1811 97.1335 32.1241 96.4577ZM37.3271 99.0195C41.8323 99.5441 45.8515 101.215 48.9627 103.607C45.385 105.22 41.0894 105.923 36.5842 105.399C33.9058 105.144 29.5226 103.419 24.9486 100.811C28.5262 99.1977 32.8218 98.4949 37.3271 99.0195ZM34.4735 82.6875C36.8475 86.5508 37.9475 90.786 37.8691 94.7848C34.2661 93.048 30.9846 90.1532 28.6106 86.29C26.2366 82.4268 25.1366 78.1916 25.215 74.1927C28.818 75.9296 32.0995 78.8243 34.4735 82.6875ZM24.4371 87.6455C22.9769 84.1187 20.4188 80.6397 16.9134 77.7634C13.408 74.8871 9.49638 73.0576 5.75213 72.314C7.2123 75.8409 9.77037 79.3199 13.2758 82.1962C16.7812 85.0724 20.6928 86.902 24.4371 87.6455ZM11.0972 63.7048C13.8205 67.3303 15.4976 71.3038 16.1085 75.0547C12.6762 73.4229 9.32712 70.7052 6.60384 67.0797C3.88056 63.4542 2.20347 59.4807 1.5926 55.7298C5.02492 57.3616 8.37396 60.0793 11.0972 63.7048ZM22.9963 32.5682C21.7398 34.178 15.9454 38.4244 13.0042 39.9456C13.8027 36.2129 15.6895 32.3288 18.6171 28.8662C21.5447 25.4035 25.061 22.897 28.6092 21.4888C27.8107 25.2215 25.9239 29.1056 22.9963 32.5682ZM23.0453 80.5802C24.1096 76.925 24.2992 72.6142 23.3859 68.1728C21.4986 64.6502 19.5875 60.7978 18.1769 56.9065C17.1126 60.5618 16.923 64.8726 17.8364 69.3139C18.7497 73.7553 20.625 77.6415 23.0453 80.5802Z" fill="#C8AA80"/>
</svg>
