<svg width="139" height="156" viewBox="0 0 139 156" fill="none" xmlns="http://www.w3.org/2000/svg">
<path id="logo" d="M71.4712 142.877C71.4969 142.695 72.3253 142.647 74.5122 141.866C85.2248 141.214 88.4496 143.077 93.5585 147.596C86.6221 149.433 82.0907 147.815 73.5098 142.877C72.5511 143.164 72.2284 143.314 72.1732 143.551L83.2 151.641C83.5616 152.035 83.5484 152.487 82.8659 154C79.541 151.501 77.0319 149.259 71.5049 143.888C71.1192 143.969 65.2655 149.071 59.4756 154C58.82 153.126 58.593 152.666 58.8073 151.978C63.6298 148.441 67.6747 145.3 70.6301 143.401M71.4712 142.877C67.5526 141.329 64.9309 141.232 59.8098 141.866C55.1002 142.955 52.8213 144.19 49.4512 147.596C53.0683 148.293 55.0629 148.482 58.4732 147.933C62.063 146.826 64.212 146.065 69.5 143.214C69.798 143.122 70.0688 143.19 70.6301 143.401M71.4712 142.877C71.2016 143.039 70.9211 143.214 70.6301 143.401M107.927 101.42L31.7415 101.085L36.2802 93.3854V84.3468L44.7092 76.6473L50.5447 27.4375H89.4478L93.9865 76.6473L103.064 83.0078V93.0506L107.927 101.42ZM65.1334 45.1798V61.5831H74.5349V45.1798C70.7102 41.2462 68.6475 41.1398 65.1334 45.1798ZM91.7172 24.4247H46.9785L47.3027 3L52.814 16.0557H59.6221L63.5124 3L69.9962 16.0557L75.1833 3L80.0462 16.0557H86.8543L91.7172 3V24.4247ZM98.5707 18.5045C100.149 30.0192 102.386 35.8164 111.937 43.4464C109.947 30.4783 107.078 24.9636 98.5707 18.5045ZM113.941 28.6161C112.685 37.1959 113.219 42.5408 122.295 55.5804C123.339 42.62 120.916 37.0514 113.941 28.6161ZM130.315 41.4241C125.046 51.2804 124.328 57.463 127.307 69.7366C132.404 61.1792 133.862 55.4899 130.315 41.4241ZM123.298 64.6808C114.078 59.2421 108.776 56.3666 105.254 43.4464C115.131 47.9421 118.872 52.8723 123.298 64.6808ZM123.298 87.9375C118.032 79.5522 112.629 77.7501 113.941 61.5831C122.861 71.7483 123.932 77.542 123.298 87.9375ZM127.307 87.2634C127.766 75.7499 129.239 69.7803 138 61.5831C137.683 73.3901 135.589 79.1266 127.307 87.2634ZM135.661 83.8929C127.678 88.1656 123.527 91.6751 118.62 106.475C127.044 101.818 131.171 97.8052 135.661 83.8929ZM112.605 113.217C110.833 104.45 110.21 99.2849 117.283 84.567C120.494 93.4878 120.262 99.4041 112.605 113.217ZM110.266 121.306C115.516 111.207 120.139 107.167 131.985 103.442C124.487 115.975 119.611 119.206 110.266 121.306ZM110.266 105.801C107.697 118.587 105.335 124.796 95.2293 129.732C96.6236 116.039 100.854 111.71 110.266 105.801ZM101.578 131.754C109.633 122.824 115.154 119.988 127.641 120.632C118.759 130.414 113.085 132.989 101.578 131.754ZM112.271 137.147C102.055 134.178 96.2868 132.751 84.2024 140.518C94.9971 144.649 101.152 143.608 112.271 137.147ZM72.8415 138.158C82.532 135.695 87.9631 134.308 94.561 120.632C87.6527 119.93 78.6848 126.646 72.8415 138.158ZM67.8293 138.158C57.1881 135.233 51.5156 133.007 45.7756 120.295C58.6363 122.713 62.7054 127.439 67.8293 138.158ZM58.4732 140.518C48.2016 134.767 42.2377 132.86 30.4049 137.147C41.935 143.62 48.038 143.972 58.4732 140.518ZM45.4415 129.732C44.4269 117.331 40.7351 112.397 30.739 105.801C31.5771 117.935 35.0173 123.048 45.4415 129.732ZM38.7585 131.754C31.2574 123.221 26.0501 120.054 12.6951 120.969C22.9946 131.256 28.6931 133.214 38.7585 131.754ZM29.7366 121.643C18.1691 117.872 13.3309 113.909 7.68293 103.442C20.6301 107.38 24.4759 112.084 29.7366 121.643ZM28.0659 112.879C30.0718 103.34 29.7089 97.5506 22.3854 85.2411C20.4786 99.3514 22.3026 104.936 28.0659 112.879ZM19.7122 106.475C8.40204 99.5051 5.81596 94.1464 3.00488 83.8929C12.8055 90.0096 16.9325 94.5677 19.7122 106.475ZM17.039 91.308C15.5329 79.7477 14.9584 73.2581 26.061 61.3103C26.2451 73.0609 23.9305 79.6258 17.039 91.308ZM12.0268 87.6004C3.51854 78.5403 1.36343 72.71 1 61.3103C9.97933 70.3613 11.801 76.2718 12.0268 87.6004ZM12.0268 69.7366C14.6098 58.1019 14.5746 51.8071 9.01951 41.4241C4.83907 51.5717 7.11098 58.0447 12.0268 69.7366ZM16.3707 65.0179C25.4474 59.6661 30.2602 56.2 34.7488 43.1094C23.8442 48.17 20.5854 53.6843 16.3707 65.0179ZM16.7049 55.9174C23.5427 47.4431 25.652 41.5973 25.3927 28.6161C16.146 39.0505 16.74 45.125 16.7049 55.9174ZM27.3976 43.1094C36.5108 34.4289 40.0856 29.0762 41.0976 17.8304C31.4553 25.2783 29.0399 31.1433 27.3976 43.1094Z" stroke="#C8AA80" stroke-width="1.5"/>
</svg>
