<svg width="18" height="25" viewBox="0 0 18 25" fill="none" xmlns="http://www.w3.org/2000/svg">
<path id="location" d="M9 0C4.02429 0 0 4.00921 0 8.96629C0 15.691 9 25 9 25C9 25 18 15.691 18 8.96629C18 4.00921 13.9757 0 9 0ZM9 12.1685C8.14752 12.1685 7.32995 11.8312 6.72716 11.2306C6.12436 10.6301 5.78571 9.81558 5.78571 8.96629C5.78571 8.117 6.12436 7.3025 6.72716 6.70196C7.32995 6.10142 8.14752 5.76405 9 5.76405C9.85248 5.76405 10.67 6.10142 11.2728 6.70196C11.8756 7.3025 12.2143 8.117 12.2143 8.96629C12.2143 9.81558 11.8756 10.6301 11.2728 11.2306C10.67 11.8312 9.85248 12.1685 9 12.1685Z" fill="#725D44"/>
</svg>
