<svg width="64" height="87" viewBox="0 0 64 87" fill="none" xmlns="http://www.w3.org/2000/svg">
<g id="music">
<path fillRule="evenodd" clipRule="evenodd" d="M14.9054 46.0047C-0.0716665 47.2227 -0.822074 59.7579 6.58522 62.6502C8.66472 63.4622 20.3136 64.2742 21.1453 53.3125L22.3865 20.0215C26.7342 21.4777 29.3901 24.4939 34.4508 33.0131C35.2532 24.8699 30.7157 20.3132 25.4925 15.0677C22.6015 12.1644 19.5004 9.05014 16.9783 5L16.1528 25.2994L14.9054 46.0047ZM42.3621 67.928C27.385 69.1459 26.6346 81.6812 34.0419 84.5735C36.1214 85.3854 47.7703 86.1974 48.602 75.2357L49.8432 41.9448C54.1909 43.401 56.8469 46.4172 61.9075 54.9364C62.7099 46.7932 58.1725 42.2364 52.9492 36.9909C50.0582 34.0876 46.9571 30.9734 44.435 26.9232L43.6095 47.2226L42.3621 67.928Z" fill="#725D44"/>
<path d="M6.58522 62.6502L7.13081 61.253L7.1308 61.253L6.58522 62.6502ZM14.9054 46.0047L15.027 47.4998L16.3244 47.3943L16.4027 46.0949L14.9054 46.0047ZM21.1453 53.3125L22.641 53.426L22.6432 53.3972L22.6443 53.3684L21.1453 53.3125ZM22.3865 20.0215L22.8629 18.5992L20.9622 17.9626L20.8875 19.9656L22.3865 20.0215ZM34.4508 33.0131L33.1611 33.7792L35.4953 37.7086L35.9435 33.1602L34.4508 33.0131ZM25.4925 15.0677L24.4296 16.1261L24.4296 16.1261L25.4925 15.0677ZM16.9783 5L18.2516 4.20711L15.6774 0.0732133L15.4796 4.93905L16.9783 5ZM16.1528 25.2994L17.6501 25.3896L17.651 25.375L17.6516 25.3603L16.1528 25.2994ZM34.0419 84.5735L33.4964 85.9707L33.4964 85.9707L34.0419 84.5735ZM42.3621 67.928L42.4837 69.423L43.7811 69.3175L43.8594 68.0182L42.3621 67.928ZM48.602 75.2357L50.0977 75.3492L50.0999 75.3205L50.101 75.2916L48.602 75.2357ZM49.8432 41.9448L50.3196 40.5224L48.4189 39.8858L48.3442 41.8889L49.8432 41.9448ZM61.9075 54.9364L60.6179 55.7024L62.952 59.6319L63.4003 55.0835L61.9075 54.9364ZM52.9492 36.9909L51.8863 38.0493L51.8863 38.0493L52.9492 36.9909ZM44.435 26.9232L45.7083 26.1303L43.1342 21.9965L42.9363 26.8623L44.435 26.9232ZM43.6095 47.2226L45.1068 47.3128L45.1077 47.2982L45.1083 47.2836L43.6095 47.2226ZM7.1308 61.253C4.20333 60.1099 2.86949 57.0855 3.78356 54.1448C4.68095 51.2579 7.94149 48.076 15.027 47.4998L14.7838 44.5097C6.89222 45.1514 2.28903 48.8461 0.918774 53.2543C-0.434792 57.6089 1.55981 62.2982 6.03964 64.0475L7.1308 61.253ZM19.6496 53.199C19.4629 55.66 18.6828 57.3524 17.6715 58.5356C16.65 59.7308 15.3109 60.5011 13.8692 60.97C12.4223 61.4407 10.9152 61.5927 9.64098 61.5754C8.32587 61.5575 7.41165 61.3626 7.13081 61.253L6.03964 64.0475C6.79854 64.3438 8.12024 64.5549 9.60013 64.5751C11.121 64.5958 12.968 64.4179 14.7972 63.8229C16.6316 63.2262 18.4906 62.1948 19.9521 60.4847C21.4239 58.7626 22.4119 56.4459 22.641 53.426L19.6496 53.199ZM20.8875 19.9656L19.6463 53.2566L22.6443 53.3684L23.8854 20.0774L20.8875 19.9656ZM35.7404 32.2471C30.6893 23.7439 27.7907 20.2497 22.8629 18.5992L21.9101 21.4439C25.6777 22.7058 28.091 25.2439 33.1611 33.7792L35.7404 32.2471ZM24.4296 16.1261C29.7076 21.4266 33.6829 25.5101 32.958 32.866L35.9435 33.1602C36.8236 24.2298 31.7238 19.1997 26.5554 14.0093L24.4296 16.1261ZM15.705 5.79289C18.3297 10.0079 21.5497 13.234 24.4296 16.1261L26.5554 14.0093C23.6532 11.0948 20.671 8.09241 18.2516 4.20711L15.705 5.79289ZM17.6516 25.3603L18.4771 5.06095L15.4796 4.93905L14.654 25.2384L17.6516 25.3603ZM16.4027 46.0949L17.6501 25.3896L14.6555 25.2092L13.4081 45.9145L16.4027 46.0949ZM34.5875 83.1762C31.66 82.0331 30.3262 79.0087 31.2403 76.0681C32.1377 73.1811 35.3982 69.9992 42.4837 69.423L42.2405 66.4329C34.3489 67.0747 29.7457 70.7694 28.3755 75.1776C27.0219 79.5321 29.0165 84.2215 33.4964 85.9707L34.5875 83.1762ZM47.1063 75.1223C46.9196 77.5832 46.1395 79.2756 45.1283 80.4588C44.1067 81.6541 42.7676 82.4243 41.3259 82.8933C39.879 83.364 38.3719 83.516 37.0977 83.4986C35.7826 83.4807 34.8684 83.2859 34.5875 83.1762L33.4964 85.9707C34.2553 86.267 35.577 86.4782 37.0568 86.4983C38.5777 86.519 40.4247 86.3412 42.2539 85.7461C44.0883 85.1494 45.9473 84.1181 47.4088 82.4079C48.8807 80.6858 49.8686 78.3691 50.0977 75.3492L47.1063 75.1223ZM48.3442 41.8889L47.1031 75.1799L50.101 75.2916L51.3422 42.0007L48.3442 41.8889ZM63.1971 54.1703C58.146 45.6671 55.2474 42.173 50.3196 40.5224L49.3668 43.3671C53.1344 44.629 55.5477 47.1672 60.6179 55.7024L63.1971 54.1703ZM51.8863 38.0493C57.1643 43.3498 61.1396 47.4333 60.4147 54.7893L63.4003 55.0835C64.2803 46.153 59.1806 41.123 54.0121 35.9325L51.8863 38.0493ZM43.1617 27.7161C45.7864 31.9311 49.0064 35.1573 51.8863 38.0493L54.0121 35.9325C51.1099 33.018 48.1277 30.0157 45.7083 26.1303L43.1617 27.7161ZM45.1083 47.2836L45.9338 26.9842L42.9363 26.8623L42.1108 47.1617L45.1083 47.2836ZM43.8594 68.0182L45.1068 47.3128L42.1122 47.1324L40.8648 67.8378L43.8594 68.0182Z" fill="#725D44"/>
</g>
</svg>
