<svg width="29" height="22" viewBox="0 0 29 22" fill="none" xmlns="http://www.w3.org/2000/svg">
<g id="quote">
<path fillRule="evenodd" clipRule="evenodd" d="M23.2076 1.04904C20.0846 0.915164 19.9164 0.907952 17.0794 3.0357C27.4464 1.76172 27.4464 2.09326 18.9643 20C23.7686 17.1726 29.3314 0.208325 27.4464 1.15078C25.5808 1.15077 24.2345 1.09306 23.2076 1.04904ZM8.12825 1.04905C5.00527 0.915173 4.83702 0.90796 2 3.0357C12.3671 1.76173 12.3671 2.09327 3.88492 20C8.68917 17.1726 14.252 0.208333 12.3671 1.15079C10.5014 1.15078 9.15511 1.09306 8.12825 1.04905Z" fill="#C8AA80"/>
<path d="M17.0794 3.03573L16.7794 2.63573L15.2794 3.76068L17.1404 3.53199L17.0794 3.03573ZM23.2076 1.04907L23.229 0.549529L23.2076 1.04907ZM18.9643 20L18.5124 19.786L17.8162 21.2559L19.2179 20.4309L18.9643 20ZM27.4464 1.15082L27.4464 1.65082L27.5645 1.65082L27.6701 1.59803L27.4464 1.15082ZM2 3.03574L1.7 2.63574L0.200053 3.76069L2.06098 3.532L2 3.03574ZM8.12825 1.04908L8.14967 0.549537L8.14966 0.549537L8.12825 1.04908ZM3.88492 20L3.43305 19.786L2.73678 21.2559L4.13852 20.431L3.88492 20ZM12.3671 1.15082L12.3671 1.65082L12.4851 1.65082L12.5907 1.59804L12.3671 1.15082ZM17.3794 3.43573C18.8181 2.35667 19.4974 1.88784 20.1862 1.67128C20.8709 1.45603 21.5924 1.48029 23.1862 1.54861L23.229 0.549529C21.6999 0.483978 20.7757 0.437697 19.8863 0.717308C19.0011 0.995609 18.1776 1.58704 16.7794 2.63573L17.3794 3.43573ZM19.4162 20.2141C21.5345 15.742 23.1319 12.3495 24.1691 9.8045C24.6879 8.53145 25.0723 7.45682 25.3121 6.55594C25.5503 5.66116 25.656 4.90128 25.5874 4.27094C25.5165 3.62034 25.2566 3.094 24.7711 2.72422C24.3072 2.37092 23.6917 2.20302 22.9898 2.13326C21.5962 1.99475 19.5877 2.22373 17.0184 2.53946L17.1404 3.53199C19.7546 3.21074 21.6338 3.00341 22.8909 3.12836C23.5142 3.19031 23.9148 3.32907 24.1652 3.51975C24.3939 3.69394 24.5463 3.94889 24.5932 4.37928C24.6424 4.82993 24.5714 5.45074 24.3457 6.29873C24.1217 7.14062 23.755 8.17084 23.243 9.42709C22.2186 11.9407 20.6351 15.3047 18.5124 19.786L19.4162 20.2141ZM27.6701 1.59803C27.6785 1.59381 27.6327 1.6197 27.5509 1.61137C27.4533 1.60142 27.3761 1.55037 27.3322 1.49822C27.2794 1.43555 27.312 1.42152 27.3208 1.59908C27.3362 1.90692 27.2682 2.44764 27.1037 3.19304C26.7795 4.6616 26.1202 6.75608 25.2483 8.97918C24.377 11.2009 23.3013 13.5312 22.1512 15.4749C20.9878 17.4409 19.7935 18.9319 18.7107 19.5691L19.2179 20.4309C20.5372 19.6545 21.8399 17.9646 23.0118 15.9841C24.197 13.9812 25.295 11.5993 26.1793 9.34428C27.0631 7.0907 27.7413 4.9441 28.0802 3.40857C28.2472 2.65192 28.342 1.99984 28.3196 1.54929C28.3095 1.34766 28.2731 1.06304 28.097 0.85403C27.9915 0.728708 27.8391 0.635555 27.6523 0.616518C27.4813 0.599098 27.3322 0.648912 27.2228 0.703601L27.6701 1.59803ZM23.1862 1.54861C24.2147 1.5927 25.5697 1.6508 27.4464 1.65082L27.4465 0.650815C25.5919 0.650801 24.2543 0.593479 23.229 0.549529L23.1862 1.54861ZM2.3 3.43574C3.73875 2.35668 4.41797 1.88785 5.10684 1.67129C5.79154 1.45603 6.51301 1.4803 8.10684 1.54862L8.14966 0.549537C6.6205 0.483986 5.69636 0.437706 4.80694 0.717316C3.92167 0.995617 3.09826 1.58705 1.7 2.63574L2.3 3.43574ZM4.33679 20.2141C6.45515 15.742 8.05248 12.3495 9.0897 9.80451C9.60853 8.53146 9.99293 7.45683 10.2327 6.55595C10.4709 5.66117 10.5767 4.90129 10.508 4.27095C10.4371 3.62035 10.1772 3.09401 9.6917 2.72423C9.22784 2.37093 8.61235 2.20303 7.91038 2.13327C6.51681 1.99476 4.50829 2.22374 1.93902 2.53947L2.06098 3.532C4.67525 3.21075 6.55438 3.00342 7.81148 3.12836C8.43485 3.19032 8.83544 3.32908 9.08579 3.51976C9.3145 3.69395 9.46696 3.9489 9.51386 4.37929C9.56298 4.82994 9.49206 5.45075 9.26636 6.29874C9.04227 7.14063 8.67564 8.17085 8.16366 9.4271C7.13924 11.9407 5.55577 15.3047 3.43305 19.786L4.33679 20.2141ZM12.5907 1.59804C12.5991 1.59382 12.5533 1.61971 12.4715 1.61138C12.3739 1.60143 12.2967 1.55038 12.2528 1.49823C12.2 1.43556 12.2326 1.42153 12.2415 1.59909C12.2568 1.90693 12.1888 2.44765 12.0243 3.19305C11.7002 4.66161 11.0408 6.75609 10.169 8.97919C9.29766 11.2009 8.22194 13.5312 7.07181 15.4749C5.90843 17.4409 4.71411 18.9319 3.63132 19.5691L4.13852 20.431C5.45787 19.6545 6.76049 17.9646 7.93243 15.9841C9.11762 13.9812 10.2156 11.5993 11.0999 9.34429C11.9837 7.09071 12.6619 4.94411 13.0008 3.40857C13.1678 2.65193 13.2627 1.99985 13.2402 1.5493C13.2302 1.34766 13.1937 1.06305 13.0177 0.854039C12.9121 0.728716 12.7598 0.635564 12.5729 0.616526C12.4019 0.599106 12.2528 0.648921 12.1435 0.70361L12.5907 1.59804ZM8.10684 1.54862C9.1353 1.59271 10.4903 1.65081 12.3671 1.65082L12.3671 0.650823C10.5125 0.650809 9.17492 0.593487 8.14967 0.549537L8.10684 1.54862Z" fill="#C8AA80"/>
</g>
</svg>
