<svg width="286" height="49" viewBox="0 0 286 49" fill="none" xmlns="http://www.w3.org/2000/svg">
<g id="restaurant-guru">
<path d="M14.1389 5.50662C13.1482 7.34241 10.3611 9.78531 10.3611 9.78531C10.4064 9.53213 10.4488 9.2925 10.489 9.06499C10.9065 6.70518 11.0935 5.64824 11.864 4.2787C12.8547 2.4429 14.1922 0.977271 15.6418 0C15.6206 1.74829 15.1296 3.67082 14.1389 5.50662Z" fill="#DFDCDC"/>
<path d="M6.21035 14.7604C6.21035 14.7604 8.4767 11.8278 9.09659 9.83595C9.71648 7.8441 9.8293 5.86306 9.51454 4.14321C8.27944 5.38063 7.24819 7.07578 6.6283 9.06763C6.13496 10.5596 6.15434 11.6328 6.19761 14.0289C6.20178 14.2597 6.20618 14.5035 6.21035 14.7604Z" fill="#DFDCDC"/>
<path d="M4.97949 14.5623C5.20404 16.6363 4.29292 20.2289 4.29292 20.2289C4.18707 19.9956 4.08651 19.7749 3.99101 19.5653L3.99012 19.5634C2.99631 17.3828 2.55102 16.4057 2.40943 14.8406C2.18488 12.7666 2.45581 10.801 3.096 9.174C4.06958 10.6262 4.75494 12.4883 4.97949 14.5623Z" fill="#DFDCDC"/>
<path d="M4.36941 27.1649C4.36941 27.1649 4.2053 23.4622 3.39196 21.5412C2.57861 19.6202 1.38518 18.0351 0.0340456 16.9256C-0.109532 18.6681 0.198154 20.6283 1.0115 22.5493C1.5986 24.007 2.30656 24.8137 3.88721 26.6148L3.8912 26.6193C4.04241 26.7916 4.20159 26.973 4.36941 27.1649Z" fill="#DFDCDC"/>
<path d="M6.26152 28.6147C6.45491 27.7808 6.93233 27.0353 7.42784 26.2615C7.96789 25.4182 8.52943 24.5413 8.76812 23.4799C9.22581 21.4446 9.16938 19.4588 8.70116 17.7662C7.55342 19.0953 6.65226 20.8658 6.19457 22.901C5.73687 24.9363 5.79331 26.9221 6.26152 28.6147Z" fill="#DFDCDC"/>
<path d="M26.2201 46.8112C25.6419 45.064 24.5162 43.3945 22.8948 42.0814C21.2734 40.7682 19.4065 40.0142 17.5774 39.8118C18.1557 41.559 19.2813 43.2285 20.9027 44.5416C22.5242 45.8548 24.3911 46.6088 26.2201 46.8112Z" fill="#DFDCDC"/>
<path d="M14.7772 44.3777C13.7388 42.8583 12.1957 41.5648 10.2746 40.7509C8.35347 39.9369 6.35094 39.7281 4.53715 40.039C5.5756 41.5584 7.11869 42.8519 9.0398 43.6658C10.9609 44.4798 12.9634 44.6886 14.7772 44.3777Z" fill="#DFDCDC"/>
<path d="M17.1706 45.5564C19.243 45.7977 21.0918 46.5664 22.5229 47.667C20.8772 48.4092 18.9012 48.7325 16.8288 48.4912C15.5968 48.374 13.5805 47.5802 11.4765 46.3806C13.1222 45.6383 15.0982 45.315 17.1706 45.5564Z" fill="#DFDCDC"/>
<path d="M15.858 38.0424C16.95 39.8198 17.456 41.7683 17.42 43.608C15.7626 42.809 14.2531 41.4772 13.161 39.6998C12.069 37.9225 11.563 35.9739 11.599 34.1342C13.2564 34.9333 14.7659 36.2651 15.858 38.0424Z" fill="#DFDCDC"/>
<path d="M11.2411 40.3234C10.5695 38.7008 9.39274 37.1002 7.78024 35.7769C6.16775 34.4536 4.36842 33.6119 2.64606 33.2698C3.31774 34.8924 4.49445 36.493 6.10695 37.8163C7.71944 39.1396 9.51877 39.9813 11.2411 40.3234Z" fill="#DFDCDC"/>
<path d="M5.10492 29.309C6.35763 30.977 7.12909 32.8051 7.4101 34.5308C5.83122 33.78 4.29067 32.5297 3.03796 30.8617C1.78525 29.1937 1.01379 27.3656 0.732785 25.6399C2.31166 26.3906 3.85221 27.641 5.10492 29.309Z" fill="#DFDCDC"/>
<path d="M10.5784 14.9838C10.0005 15.7244 7.33505 17.6781 5.98209 18.378C6.34937 16.6606 7.21733 14.8737 8.56402 13.2806C9.91072 11.6875 11.5282 10.5343 13.1604 9.88646C12.7931 11.6038 11.9251 13.3908 10.5784 14.9838Z" fill="#DFDCDC"/>
<path d="M10.6009 37.0729C11.0905 35.3912 11.1777 33.4079 10.7575 31.3646C9.88942 29.7439 9.01031 27.9715 8.36143 26.1813C7.87186 27.8629 7.78464 29.8462 8.20477 31.8896C8.62491 33.9329 9.48755 35.7209 10.6009 37.0729Z" fill="#DFDCDC"/>
<path d="M273.158 4.2989C274.17 6.14339 274.693 9.83174 274.693 9.83174C274.502 9.65415 274.322 9.48645 274.15 9.32722C272.369 7.67525 271.571 6.93534 270.834 5.53284C269.821 3.68836 269.32 1.75664 269.298 0C270.779 0.981838 272.145 2.45442 273.158 4.2989Z" fill="#DFDCDC"/>
<path d="M278.362 8.8785C278.996 10.8799 279.111 12.8704 278.789 14.5984C278.638 14.3894 278.494 14.1919 278.357 14.0043L278.355 14.0006C276.929 12.043 276.291 11.1662 275.841 9.65056C275.207 7.6492 275.092 5.6587 275.414 3.93062C276.675 5.17391 277.729 6.87714 278.362 8.8785Z" fill="#DFDCDC"/>
<path d="M280.855 20.0939C281.85 18.6347 282.55 16.7637 282.779 14.6798C283.009 12.5959 282.732 10.6208 282.078 8.98608C281.083 10.4453 280.383 12.3163 280.154 14.4002C279.953 15.9668 280.183 17.0211 280.698 19.3751C280.748 19.6018 280.8 19.8414 280.855 20.0939Z" fill="#DFDCDC"/>
<path d="M284.189 22.4257C283.358 24.3559 282.139 25.9487 280.758 27.0636C280.78 26.8096 280.799 26.5692 280.818 26.3407L280.819 26.3312C281.016 23.9311 281.105 22.8559 281.757 21.4129C282.587 19.4827 283.807 17.89 285.187 16.7751C285.334 18.5259 285.019 20.4955 284.189 22.4257Z" fill="#DFDCDC"/>
<path d="M274.886 37.0066C276.024 35.6483 276.906 33.8519 277.335 31.7987C277.798 29.6577 277.502 27.1025 276.846 25.8106C276.515 26.9435 276.079 27.9585 275.648 28.9579C275.319 29.7227 274.994 30.4784 274.723 31.2706C274.294 33.3237 274.384 35.3166 274.886 37.0066Z" fill="#DFDCDC"/>
<path d="M279.173 37.7652C277.526 39.0948 275.688 39.9405 273.928 40.2841C274.614 38.6538 275.816 37.0456 277.464 35.716C279.111 34.3864 280.949 33.5407 282.709 33.197C282.023 34.8274 280.82 36.4356 279.173 37.7652Z" fill="#DFDCDC"/>
<path d="M267.983 43.5842C269.677 42.7814 271.219 41.4433 272.334 39.6575C273.45 37.8717 273.967 35.9139 273.93 34.0654C272.237 34.8682 270.695 36.2063 269.579 37.9921C268.464 39.7779 267.947 41.7357 267.983 43.5842Z" fill="#DFDCDC"/>
<path d="M259 46.8013C260.868 46.5982 262.775 45.8408 264.431 44.5217C266.087 43.2026 267.237 41.5254 267.827 39.7701C265.959 39.9733 264.052 40.7306 262.396 42.0497C260.74 43.3688 259.59 45.046 259 46.8013Z" fill="#DFDCDC"/>
<path d="M263.547 47.6624C265.228 48.4083 267.247 48.7332 269.364 48.4907C271.668 48.0244 273.608 47.191 274.832 46.3702C273.15 45.6243 271.132 45.2994 269.015 45.5419C266.898 45.7843 265.009 46.5566 263.547 47.6624Z" fill="#DFDCDC"/>
<path d="M276.33 43.6421C274.368 44.4597 272.323 44.6693 270.47 44.3567C271.531 42.8302 273.107 41.5308 275.069 40.7132C277.031 39.8956 279.076 39.686 280.929 39.9986C279.868 41.5251 278.292 42.8245 276.33 43.6421Z" fill="#DFDCDC"/>
<path d="M277.363 34.4639C278.976 33.7095 280.55 32.4532 281.829 30.7772C283.109 29.1012 283.897 27.2644 284.184 25.5304C282.571 26.2848 280.998 27.5411 279.718 29.2171C278.847 30.7183 277.971 32.6014 277.363 34.4639Z" fill="#DFDCDC"/>
<path d="M276.642 13.113C277.29 13.8095 278.804 16.7772 279.279 18.2348C276.453 16.4269 275.123 15.5699 274.584 14.8242C273.208 13.2235 272.322 11.428 271.947 9.70241C273.614 10.3534 275.266 11.5122 276.642 13.113Z" fill="#DFDCDC"/>
<path d="M279.229 27.253C279.506 25.5096 279.331 23.5209 278.628 21.542C277.926 19.5631 276.804 17.8996 275.484 16.7049C275.207 18.4483 275.382 20.437 276.084 22.4159C276.404 23.9741 277.146 25.1071 279.229 27.253Z" fill="#DFDCDC"/>
<path d="M28.1136 41V23.5455H34.0114C35.375 23.5455 36.4943 23.7784 37.3693 24.2443C38.2443 24.7045 38.892 25.3381 39.3125 26.1449C39.733 26.9517 39.9432 27.8693 39.9432 28.8977C39.9432 29.9261 39.733 30.8381 39.3125 31.6335C38.892 32.429 38.2472 33.054 37.3778 33.5085C36.5085 33.9574 35.3977 34.1818 34.0455 34.1818H29.2727V32.2727H33.9773C34.9091 32.2727 35.6591 32.1364 36.2273 31.8636C36.8011 31.5909 37.2159 31.2045 37.4716 30.7045C37.733 30.1989 37.8636 29.5966 37.8636 28.8977C37.8636 28.1989 37.733 27.5881 37.4716 27.0653C37.2102 26.5426 36.7926 26.1392 36.2188 25.8551C35.6449 25.5653 34.8864 25.4205 33.9432 25.4205H30.2273V41H28.1136ZM36.3295 33.1591L40.625 41H38.1705L33.9432 33.1591H36.3295Z" fill="#DFDCDC"/>
<path d="M43.4652 41V23.5455H53.9993V25.4205H45.5788V31.3182H53.4538V33.1932H45.5788V39.125H54.1357V41H43.4652Z" fill="#DFDCDC"/>
<path d="M67.3544 27.9091C67.2521 27.0455 66.8374 26.375 66.1101 25.8977C65.3828 25.4205 64.4908 25.1818 63.4339 25.1818C62.6612 25.1818 61.9851 25.3068 61.4055 25.5568C60.8317 25.8068 60.3828 26.1506 60.0589 26.5881C59.7408 27.0256 59.5817 27.5227 59.5817 28.0795C59.5817 28.5455 59.6925 28.946 59.9141 29.2812C60.1413 29.6108 60.4311 29.8864 60.7834 30.108C61.1357 30.3239 61.505 30.5028 61.8913 30.6449C62.2777 30.7812 62.6328 30.892 62.9567 30.9773L64.7294 31.4545C65.1839 31.5739 65.6896 31.7386 66.2465 31.9489C66.809 32.1591 67.3459 32.446 67.8572 32.8097C68.3743 33.1676 68.8004 33.6278 69.1357 34.1903C69.4709 34.7528 69.6385 35.4432 69.6385 36.2614C69.6385 37.2045 69.3913 38.0568 68.897 38.8182C68.4084 39.5795 67.6925 40.1847 66.7493 40.6335C65.8118 41.0824 64.6726 41.3068 63.3317 41.3068C62.0817 41.3068 60.9993 41.1051 60.0845 40.7017C59.1754 40.2983 58.4595 39.7358 57.9368 39.0142C57.4197 38.2926 57.1271 37.4545 57.0589 36.5H59.2408C59.2976 37.1591 59.5192 37.7045 59.9055 38.1364C60.2976 38.5625 60.7919 38.8807 61.3885 39.0909C61.9908 39.2955 62.6385 39.3977 63.3317 39.3977C64.1385 39.3977 64.8629 39.267 65.505 39.0057C66.147 38.7386 66.6555 38.3693 67.0305 37.8977C67.4055 37.4205 67.593 36.8636 67.593 36.2273C67.593 35.6477 67.4311 35.1761 67.1072 34.8125C66.7834 34.4489 66.3572 34.1534 65.8288 33.9261C65.3004 33.6989 64.7294 33.5 64.1158 33.3295L61.968 32.7159C60.6044 32.3239 59.5249 31.7642 58.7294 31.0369C57.9339 30.3097 57.5362 29.358 57.5362 28.1818C57.5362 27.2045 57.8004 26.3523 58.3288 25.625C58.8629 24.892 59.5788 24.3239 60.4766 23.9205C61.38 23.5114 62.3885 23.3068 63.5021 23.3068C64.6271 23.3068 65.6271 23.5085 66.5021 23.9119C67.3771 24.3097 68.0703 24.8551 68.5817 25.5483C69.0987 26.2415 69.3714 27.0284 69.3999 27.9091H67.3544Z" fill="#DFDCDC"/>
<path d="M72.1591 25.4205V23.5455H85.25V25.4205H79.7614V41H77.6477V25.4205H72.1591Z" fill="#DFDCDC"/>
<path d="M87.1889 41H84.973L91.3821 23.5455H93.5639L99.973 41H97.7571L92.5412 26.3068H92.4048L87.1889 41ZM88.0071 34.1818H96.9389V36.0568H88.0071V34.1818Z" fill="#DFDCDC"/>
<path d="M114.146 23.5455H116.26V35.1023C116.26 36.2955 115.979 37.3608 115.416 38.2983C114.859 39.2301 114.072 39.9659 113.055 40.5057C112.038 41.0398 110.845 41.3068 109.476 41.3068C108.107 41.3068 106.913 41.0398 105.896 40.5057C104.879 39.9659 104.089 39.2301 103.527 38.2983C102.97 37.3608 102.692 36.2955 102.692 35.1023V23.5455H104.805V34.9318C104.805 35.7841 104.993 36.5426 105.368 37.2074C105.743 37.8665 106.277 38.3864 106.97 38.767C107.669 39.142 108.504 39.3295 109.476 39.3295C110.447 39.3295 111.283 39.142 111.982 38.767C112.68 38.3864 113.214 37.8665 113.584 37.2074C113.959 36.5426 114.146 35.7841 114.146 34.9318V23.5455Z" fill="#DFDCDC"/>
<path d="M120.481 41V23.5455H126.379C127.742 23.5455 128.862 23.7784 129.737 24.2443C130.612 24.7045 131.259 25.3381 131.68 26.1449C132.1 26.9517 132.31 27.8693 132.31 28.8977C132.31 29.9261 132.1 30.8381 131.68 31.6335C131.259 32.429 130.614 33.054 129.745 33.5085C128.876 33.9574 127.765 34.1818 126.413 34.1818H121.64V32.2727H126.344C127.276 32.2727 128.026 32.1364 128.594 31.8636C129.168 31.5909 129.583 31.2045 129.839 30.7045C130.1 30.1989 130.231 29.5966 130.231 28.8977C130.231 28.1989 130.1 27.5881 129.839 27.0653C129.577 26.5426 129.16 26.1392 128.586 25.8551C128.012 25.5653 127.254 25.4205 126.31 25.4205H122.594V41H120.481ZM128.697 33.1591L132.992 41H130.538L126.31 33.1591H128.697Z" fill="#DFDCDC"/>
<path d="M136.548 41H134.332L140.741 23.5455H142.923L149.332 41H147.116L141.901 26.3068H141.764L136.548 41ZM137.366 34.1818H146.298V36.0568H137.366V34.1818Z" fill="#DFDCDC"/>
<path d="M165.892 23.5455V41H163.847L154.335 27.2955H154.165V41H152.051V23.5455H154.097L163.642 37.2841H163.812V23.5455H165.892Z" fill="#DFDCDC"/>
<path d="M169.167 25.4205V23.5455H182.258V25.4205H176.769V41H174.656V25.4205H169.167Z" fill="#DFDCDC"/>
<path d="M204.202 29C204.014 28.4261 203.767 27.9119 203.46 27.4574C203.159 26.9972 202.798 26.6051 202.378 26.2812C201.963 25.9574 201.491 25.7102 200.963 25.5398C200.435 25.3693 199.855 25.2841 199.224 25.2841C198.19 25.2841 197.25 25.5511 196.403 26.0852C195.557 26.6193 194.884 27.4062 194.384 28.446C193.884 29.4858 193.634 30.7614 193.634 32.2727C193.634 33.7841 193.886 35.0597 194.392 36.0994C194.898 37.1392 195.582 37.9261 196.446 38.4602C197.31 38.9943 198.281 39.2614 199.361 39.2614C200.361 39.2614 201.241 39.0483 202.003 38.6222C202.77 38.1903 203.366 37.5824 203.793 36.7983C204.224 36.0085 204.44 35.0795 204.44 34.0114L205.088 34.1477H199.838V32.2727H206.486V34.1477C206.486 35.5852 206.179 36.8352 205.565 37.8977C204.957 38.9602 204.116 39.7841 203.043 40.3693C201.974 40.9489 200.747 41.2386 199.361 41.2386C197.815 41.2386 196.457 40.875 195.287 40.1477C194.122 39.4205 193.213 38.3864 192.56 37.0455C191.912 35.7045 191.588 34.1136 191.588 32.2727C191.588 30.892 191.773 29.6506 192.142 28.5483C192.517 27.4403 193.045 26.4972 193.727 25.7188C194.409 24.9403 195.216 24.3438 196.148 23.929C197.08 23.5142 198.105 23.3068 199.224 23.3068C200.145 23.3068 201.003 23.446 201.798 23.7244C202.599 23.9972 203.312 24.3864 203.938 24.892C204.568 25.392 205.094 25.9915 205.514 26.6903C205.935 27.3835 206.224 28.1534 206.384 29H204.202Z" fill="#DFDCDC"/>
<path d="M221.56 23.5455H223.674V35.1023C223.674 36.2955 223.393 37.3608 222.83 38.2983C222.273 39.2301 221.487 39.9659 220.469 40.5057C219.452 41.0398 218.259 41.3068 216.89 41.3068C215.521 41.3068 214.327 41.0398 213.31 40.5057C212.293 39.9659 211.504 39.2301 210.941 38.2983C210.384 37.3608 210.106 36.2955 210.106 35.1023V23.5455H212.219V34.9318C212.219 35.7841 212.407 36.5426 212.782 37.2074C213.157 37.8665 213.691 38.3864 214.384 38.767C215.083 39.142 215.918 39.3295 216.89 39.3295C217.861 39.3295 218.697 39.142 219.396 38.767C220.094 38.3864 220.629 37.8665 220.998 37.2074C221.373 36.5426 221.56 35.7841 221.56 34.9318V23.5455Z" fill="#DFDCDC"/>
<path d="M227.895 41V23.5455H233.793C235.156 23.5455 236.276 23.7784 237.151 24.2443C238.026 24.7045 238.673 25.3381 239.094 26.1449C239.514 26.9517 239.724 27.8693 239.724 28.8977C239.724 29.9261 239.514 30.8381 239.094 31.6335C238.673 32.429 238.028 33.054 237.159 33.5085C236.29 33.9574 235.179 34.1818 233.827 34.1818H229.054V32.2727H233.759C234.69 32.2727 235.44 32.1364 236.009 31.8636C236.582 31.5909 236.997 31.2045 237.253 30.7045C237.514 30.1989 237.645 29.5966 237.645 28.8977C237.645 28.1989 237.514 27.5881 237.253 27.0653C236.991 26.5426 236.574 26.1392 236 25.8551C235.426 25.5653 234.668 25.4205 233.724 25.4205H230.009V41H227.895ZM236.111 33.1591L240.406 41H237.952L233.724 33.1591H236.111Z" fill="#DFDCDC"/>
<path d="M254.701 23.5455H256.815V35.1023C256.815 36.2955 256.533 37.3608 255.971 38.2983C255.414 39.2301 254.627 39.9659 253.61 40.5057C252.593 41.0398 251.4 41.3068 250.031 41.3068C248.661 41.3068 247.468 41.0398 246.451 40.5057C245.434 39.9659 244.644 39.2301 244.082 38.2983C243.525 37.3608 243.246 36.2955 243.246 35.1023V23.5455H245.36V34.9318C245.36 35.7841 245.548 36.5426 245.923 37.2074C246.298 37.8665 246.832 38.3864 247.525 38.767C248.224 39.142 249.059 39.3295 250.031 39.3295C251.002 39.3295 251.837 39.142 252.536 38.767C253.235 38.3864 253.769 37.8665 254.138 37.2074C254.513 36.5426 254.701 35.7841 254.701 34.9318V23.5455Z" fill="#DFDCDC"/>
</g>
</svg>
