<svg width="57" height="106" viewBox="0 0 57 106" fill="none" xmlns="http://www.w3.org/2000/svg">
<path id="right-leaves" fill-rule="evenodd" clip-rule="evenodd" d="M30.7752 9.34397C32.9755 13.3531 34.1135 21.37 34.1135 21.37C33.6988 20.984 33.3058 20.6195 32.9326 20.2734C29.0608 16.6827 27.3266 15.0745 25.7235 12.026C23.5232 8.01691 22.4325 3.81818 22.3852 0C25.6046 2.1341 28.5749 5.33486 30.7752 9.34397ZM42.0892 19.298C43.466 23.6481 43.7166 27.9746 43.0177 31.7307C42.6901 31.2791 42.3791 30.852 42.0836 30.4463L42.0812 30.443L42.077 30.4372L42.0739 30.433L42.0726 30.4312C38.974 26.1763 37.5861 24.2706 36.6079 20.9762C35.2312 16.6261 34.9806 12.2996 35.6795 8.54346C38.4223 11.2458 40.7125 14.9479 42.0892 19.298ZM47.5083 43.6754C49.6702 40.5038 51.1921 36.437 51.6907 31.9075C52.1892 27.378 51.5874 23.0851 50.1657 19.5319C48.0037 22.7035 46.4818 26.7703 45.9833 31.2998C45.5466 34.7049 46.048 36.9966 47.1675 42.1132L47.1676 42.1135C47.2755 42.6067 47.3892 43.1262 47.5083 43.6754ZM54.7542 48.7439C52.9481 52.9393 50.298 56.4013 47.2976 58.8246C47.3447 58.2652 47.3882 57.7359 47.4295 57.2334L47.4296 57.2321V57.2321C47.8587 52.0153 48.0509 49.6788 49.4678 46.5425C51.2738 42.347 53.924 38.8851 56.9244 36.4618C57.2433 40.2674 56.5602 44.5485 54.7542 48.7439ZM34.532 80.4366C37.0068 77.4841 38.9238 73.5795 39.8565 69.1169C40.8634 64.4632 40.2198 58.9093 38.7934 56.1013C38.0744 58.5636 37.1248 60.77 36.1898 62.9421C35.4742 64.6046 34.7673 66.2471 34.1789 67.969C33.2462 72.4316 33.4418 76.7634 34.532 80.4366ZM43.8519 82.0853C40.271 84.9753 36.2751 86.8135 32.4502 87.5605C33.9419 84.0168 36.5552 80.5212 40.1361 77.6313C43.7171 74.7413 47.7129 72.9031 51.5378 72.1561C50.0461 75.6998 47.4329 79.1953 43.8519 82.0853ZM19.5278 94.7335C23.2085 92.9885 26.5608 90.0801 28.9861 86.1985C31.4114 82.3169 32.5352 78.0615 32.4554 74.0435C28.7747 75.7885 25.4225 78.697 22.9972 82.5785C20.5718 86.4601 19.448 90.7155 19.5278 94.7335ZM0 101.726C4.06118 101.285 8.20618 99.6383 11.806 96.7711C15.4059 93.904 17.9048 90.2585 19.1883 86.4432C15.1271 86.8847 10.9821 88.5309 7.38226 91.3981C3.7824 94.2652 1.28345 97.9107 0 101.726ZM9.88326 103.598C13.5378 105.219 17.9259 105.925 22.5281 105.398C27.5373 104.385 31.7547 102.573 34.4144 100.789C30.7598 99.1679 26.3717 98.4617 21.7695 98.9886C17.1673 99.5156 13.0615 101.194 9.88326 103.598ZM37.6722 94.8591C33.407 96.6363 28.9609 97.0918 24.9338 96.4124C27.2392 93.0944 30.665 90.2701 34.9302 88.493C39.1955 86.7159 43.6416 86.2603 47.6687 86.9398C45.3633 90.2577 41.9374 93.082 37.6722 94.8591ZM39.9167 74.9097C43.4229 73.2701 46.844 70.5393 49.6259 66.8964C52.4078 63.2536 54.121 59.2611 54.745 55.4922C51.2388 57.1319 47.8176 59.8627 45.0358 63.5055C43.1434 66.7685 41.2378 70.8616 39.9167 74.9097ZM38.3497 28.5021C39.7576 30.016 43.0504 36.4666 44.0829 39.6348C37.9377 35.7052 35.0481 33.8424 33.8761 32.2217C30.8856 28.7424 28.9583 24.8397 28.1428 21.089C31.7673 22.5041 35.3592 25.0228 38.3497 28.5021ZM43.9728 59.2364C44.5753 55.4471 44.195 51.1245 42.6678 46.8232C41.1406 42.522 38.7024 38.9062 35.8325 36.3096C35.2299 40.0989 35.6102 44.4215 37.1374 48.7228C37.8332 52.1096 39.4464 54.5723 43.9728 59.2364Z" fill="#C8AA80"/>
</svg>
